<svg xmlns="http://www.w3.org/2000/svg" viewBox="0 0 256 240" role="img" aria-label="MetaMask">
  <path fill="#e2761b" d="m246 3-99 73 18-43 81-30Z"/>
  <path fill="#e4761b" d="m10 3 98 74-17-44L10 3Zm200 169-26 40 56 16 16-55-46-1Zm-210 1 16 55 56-16-26-40-46 1Z"/>
  <path fill="#e4761b" d="m69 105-16 25 55 3-2-59-37 31Zm118 0-38-32-1 60 55-3-16-25Zm-115 107 34-17-29-23-5 40Zm78-17 34 17-5-40-29 23Z"/>
  <path fill="#d7c1b3" d="m184 212-34-17 3 24v10l31-17Zm-112 0 31 17v-10l3-24-34 17Z"/>
  <path fill="#233447" d="m104 157-28-8 20-9 8 17Zm48 0 8-17 20 9-28 8Z"/>
  <path fill="#cd6116" d="m72 212 5-40-31 1 26 39Zm107-40 5 40 26-39-31-1Zm24-42-55 3 5 24 8-17 20 9 22-19Zm-127 19 20-9 8 17 4-24-55-3 23 19Z"/>
  <path fill="#e4751f" d="m53 130 23 42-1-23-22-19Zm128 19-2 23 24-42-22 19Zm-73-16-4 24 6 31 1-41-3-14Zm40 0-3 14 1 41 6-31-4-24Z"/>
  <path fill="#f6851b" d="m152 157-6 31 4 7 29-23 2-23-29 8Zm-76-8 1 23 29 23 4-7-6-31-28-8Z"/>
  <path fill="#c0ad9e" d="m153 229v-10l-3-3h-44l-3 3v10l-31-17 11 9 22 15h46l22-15 11-9-31 17Z"/>
  <path fill="#161616" d="m150 195-4-7h-36l-4 7-3 24 3-3h44l3 3-3-24Z"/>
  <path fill="#763d16" d="m250 80 8-39-12-38-96 71 37 31 52 15 12-14-5-4 8-7-6-5 8-6-6-4Zm-252-39 8 39-6 4 8 6-6 5 8 7-5 4 12 14 52-15 37-31L10 3-2 41Z"/>
  <path fill="#f6851b" d="m239 120-52-15 16 25-24 42 31 1h46l-17-53Zm-170-15-52 15L0 173h46l31-1-24-42 16-25Zm79 28 2-59 15-41h-73l16 41v59l6 55 1-41h26l1 41 6-55Z"/>
</svg>
